<svg xmlns="http://www.w3.org/2000/svg" viewBox="0 0 96 96">
  <defs>
    <linearGradient id="g" x1="0" y1="0" x2="1" y2="1">
      <stop offset="0" stop-color="#ffb3d1"/>
      <stop offset="1" stop-color="#ffd6e7"/>
    </linearGradient>
  </defs>
  <rect x="10" y="10" width="76" height="76" rx="18" fill="url(#g)"/>
  <path d="M48 24c-11.6 0-21 9.4-21 21s9.4 21 21 21 21-9.4 21-21-9.4-21-21-21Zm0 6c8.3 0 15 6.7 15 15s-6.7 15-15 15-15-6.7-15-15 6.7-15 15-15Z" fill="#8a204b"/>
  <path d="M48 34a3 3 0 0 1 3 3v9.2l6.4 3.7a3 3 0 1 1-3 5.2l-7.9-4.6a3 3 0 0 1-1.5-2.6V37a3 3 0 0 1 3-3Z" fill="#8a204b"/>
</svg>
